<mxfile host="app.diagrams.net" agent="Mozilla/5.0 (Windows NT 10.0; Win64; x64) AppleWebKit/537.36 (KHTML, like Gecko) Chrome/133.0.0.0 Safari/537.36" version="26.0.16">
  <diagram name="1 oldal" id="Vf__FyxN_QZtxRjKzQp_">
    <mxGraphModel dx="1562" dy="893" grid="1" gridSize="10" guides="1" tooltips="1" connect="1" arrows="1" fold="1" page="1" pageScale="1" pageWidth="827" pageHeight="1169" math="0" shadow="0">
      <root>
        <mxCell id="0" />
        <mxCell id="1" parent="0" />
        <mxCell id="ZYZ0dpm6IWxm14Pk4TV_-6" style="edgeStyle=orthogonalEdgeStyle;rounded=0;orthogonalLoop=1;jettySize=auto;html=1;exitX=0;exitY=0.5;exitDx=0;exitDy=0;" edge="1" parent="1" source="ZYZ0dpm6IWxm14Pk4TV_-1" target="ZYZ0dpm6IWxm14Pk4TV_-2">
          <mxGeometry relative="1" as="geometry" />
        </mxCell>
        <mxCell id="ZYZ0dpm6IWxm14Pk4TV_-1" value="employees-eureka&lt;div&gt;Eureka Service Discovery&lt;/div&gt;&lt;div&gt;Port: 8761&lt;/div&gt;" style="rounded=0;whiteSpace=wrap;html=1;fillColor=#fff2cc;strokeColor=#d6b656;" vertex="1" parent="1">
          <mxGeometry x="280" y="40" width="160" height="60" as="geometry" />
        </mxCell>
        <mxCell id="ZYZ0dpm6IWxm14Pk4TV_-9" style="edgeStyle=orthogonalEdgeStyle;rounded=0;orthogonalLoop=1;jettySize=auto;html=1;exitX=1;exitY=0.5;exitDx=0;exitDy=0;entryX=0;entryY=0.75;entryDx=0;entryDy=0;" edge="1" parent="1" source="ZYZ0dpm6IWxm14Pk4TV_-2" target="ZYZ0dpm6IWxm14Pk4TV_-3">
          <mxGeometry relative="1" as="geometry">
            <Array as="points">
              <mxPoint x="340" y="230" />
              <mxPoint x="340" y="205" />
            </Array>
          </mxGeometry>
        </mxCell>
        <mxCell id="ZYZ0dpm6IWxm14Pk4TV_-10" style="edgeStyle=orthogonalEdgeStyle;rounded=0;orthogonalLoop=1;jettySize=auto;html=1;exitX=1;exitY=0.5;exitDx=0;exitDy=0;entryX=0;entryY=0.75;entryDx=0;entryDy=0;" edge="1" parent="1" source="ZYZ0dpm6IWxm14Pk4TV_-2" target="ZYZ0dpm6IWxm14Pk4TV_-4">
          <mxGeometry relative="1" as="geometry">
            <Array as="points">
              <mxPoint x="340" y="230" />
              <mxPoint x="340" y="285" />
            </Array>
          </mxGeometry>
        </mxCell>
        <mxCell id="ZYZ0dpm6IWxm14Pk4TV_-2" value="employees-gateway&lt;div&gt;Spring Cloud Gateway&lt;/div&gt;&lt;div&gt;Port: 8084&lt;/div&gt;" style="rounded=0;whiteSpace=wrap;html=1;fillColor=#fff2cc;strokeColor=#d6b656;" vertex="1" parent="1">
          <mxGeometry x="160" y="200" width="160" height="60" as="geometry" />
        </mxCell>
        <mxCell id="ZYZ0dpm6IWxm14Pk4TV_-7" style="edgeStyle=orthogonalEdgeStyle;rounded=0;orthogonalLoop=1;jettySize=auto;html=1;exitX=0;exitY=0.5;exitDx=0;exitDy=0;entryX=0.5;entryY=1;entryDx=0;entryDy=0;" edge="1" parent="1" source="ZYZ0dpm6IWxm14Pk4TV_-3" target="ZYZ0dpm6IWxm14Pk4TV_-1">
          <mxGeometry relative="1" as="geometry" />
        </mxCell>
        <mxCell id="ZYZ0dpm6IWxm14Pk4TV_-12" style="edgeStyle=orthogonalEdgeStyle;rounded=0;orthogonalLoop=1;jettySize=auto;html=1;exitX=1;exitY=0.5;exitDx=0;exitDy=0;entryX=0;entryY=0.5;entryDx=0;entryDy=0;" edge="1" parent="1" source="ZYZ0dpm6IWxm14Pk4TV_-3" target="ZYZ0dpm6IWxm14Pk4TV_-5">
          <mxGeometry relative="1" as="geometry" />
        </mxCell>
        <mxCell id="ZYZ0dpm6IWxm14Pk4TV_-15" style="edgeStyle=orthogonalEdgeStyle;rounded=0;orthogonalLoop=1;jettySize=auto;html=1;exitX=1;exitY=0.75;exitDx=0;exitDy=0;" edge="1" parent="1" source="ZYZ0dpm6IWxm14Pk4TV_-3" target="ZYZ0dpm6IWxm14Pk4TV_-14">
          <mxGeometry relative="1" as="geometry" />
        </mxCell>
        <mxCell id="ZYZ0dpm6IWxm14Pk4TV_-3" value="employees-frontend (1)&lt;div&gt;Port: 8081&lt;/div&gt;" style="rounded=0;whiteSpace=wrap;html=1;fillColor=#fff2cc;strokeColor=#d6b656;" vertex="1" parent="1">
          <mxGeometry x="400" y="160" width="160" height="60" as="geometry" />
        </mxCell>
        <mxCell id="ZYZ0dpm6IWxm14Pk4TV_-8" style="edgeStyle=orthogonalEdgeStyle;rounded=0;orthogonalLoop=1;jettySize=auto;html=1;exitX=0;exitY=0.5;exitDx=0;exitDy=0;" edge="1" parent="1" source="ZYZ0dpm6IWxm14Pk4TV_-4">
          <mxGeometry relative="1" as="geometry">
            <mxPoint x="360" y="100" as="targetPoint" />
          </mxGeometry>
        </mxCell>
        <mxCell id="ZYZ0dpm6IWxm14Pk4TV_-13" style="edgeStyle=orthogonalEdgeStyle;rounded=0;orthogonalLoop=1;jettySize=auto;html=1;exitX=1;exitY=0.5;exitDx=0;exitDy=0;" edge="1" parent="1" source="ZYZ0dpm6IWxm14Pk4TV_-4" target="ZYZ0dpm6IWxm14Pk4TV_-5">
          <mxGeometry relative="1" as="geometry" />
        </mxCell>
        <mxCell id="ZYZ0dpm6IWxm14Pk4TV_-16" style="edgeStyle=orthogonalEdgeStyle;rounded=0;orthogonalLoop=1;jettySize=auto;html=1;exitX=1;exitY=0.5;exitDx=0;exitDy=0;" edge="1" parent="1" source="ZYZ0dpm6IWxm14Pk4TV_-4" target="ZYZ0dpm6IWxm14Pk4TV_-14">
          <mxGeometry relative="1" as="geometry" />
        </mxCell>
        <mxCell id="ZYZ0dpm6IWxm14Pk4TV_-4" value="employees-frontend (2)&lt;div&gt;Port: 8082&lt;/div&gt;" style="rounded=0;whiteSpace=wrap;html=1;fillColor=#fff2cc;strokeColor=#d6b656;" vertex="1" parent="1">
          <mxGeometry x="400" y="240" width="160" height="60" as="geometry" />
        </mxCell>
        <mxCell id="ZYZ0dpm6IWxm14Pk4TV_-5" value="employees-backend&lt;div&gt;Port: 8080&lt;/div&gt;" style="rounded=0;whiteSpace=wrap;html=1;fillColor=#fff2cc;strokeColor=#d6b656;" vertex="1" parent="1">
          <mxGeometry x="640" y="200" width="160" height="60" as="geometry" />
        </mxCell>
        <mxCell id="ZYZ0dpm6IWxm14Pk4TV_-14" value="Redis&lt;div&gt;Port: 6379&lt;/div&gt;" style="rounded=0;whiteSpace=wrap;html=1;fillColor=#fff2cc;strokeColor=#d6b656;" vertex="1" parent="1">
          <mxGeometry x="500" y="330" width="160" height="60" as="geometry" />
        </mxCell>
        <mxCell id="ZYZ0dpm6IWxm14Pk4TV_-18" style="edgeStyle=orthogonalEdgeStyle;rounded=0;orthogonalLoop=1;jettySize=auto;html=1;exitX=0.9;exitY=0.5;exitDx=0;exitDy=0;exitPerimeter=0;entryX=0;entryY=0.5;entryDx=0;entryDy=0;" edge="1" parent="1" source="ZYZ0dpm6IWxm14Pk4TV_-17" target="ZYZ0dpm6IWxm14Pk4TV_-2">
          <mxGeometry relative="1" as="geometry" />
        </mxCell>
        <mxCell id="ZYZ0dpm6IWxm14Pk4TV_-17" value="" style="shape=actor;whiteSpace=wrap;html=1;fillColor=#fff2cc;strokeColor=#d6b656;" vertex="1" parent="1">
          <mxGeometry x="30" y="200" width="40" height="60" as="geometry" />
        </mxCell>
      </root>
    </mxGraphModel>
  </diagram>
</mxfile>
